nColumns=19
nRows=83
DataType=double
version=3
OpenSimVersion=4.1
endheader
time	ground_force_1_vx	ground_force_1_vy	ground_force_1_vz	ground_force_1_px	ground_force_1_py	ground_force_1_pz	ground_force_1_mx	ground_force_1_my	ground_force_1_mz	ground_force_2_vx	ground_force_2_vy	ground_force_2_vz	ground_force_2_px	ground_force_2_py	ground_force_2_pz	ground_force_2_mx	ground_force_2_my	ground_force_2_mz
0	-150.337	698.798	-15.4712	0.177836	0.006	-0.162732	0	0.448552	0	0	0	0	0.75764	0	-0.119058	0	0	0
0.01	-151.159	712.923	-15.3514	0.181177	0.006	-0.16174	0	0.66085	0	0	0	0	0.75764	0	-0.119058	0	0	0
0.02	-151.571	727.367	-15.4366	0.18532	0.006	-0.160437	0	0.866056	0	0	0	0	0.75764	0	-0.119058	0	0	0
0.03	-151.445	741.466	-15.7487	0.189596	0.006	-0.159002	0	1.05821	0	0	0	0	0.75764	0	-0.119058	0	0	0
0.04	-150.676	754.53	-16.2814	0.193912	0.006	-0.157455	0	1.23249	0	0	0	0	0.75764	0	-0.119058	0	0	0
0.05	-149.195	765.887	-17.0179	0.198196	0.006	-0.155816	0	1.38464	0	0	0	0	0.75764	0	-0.119058	0	0	0
0.06	-146.974	774.935	-17.9354	0.202396	0.006	-0.154103	0	1.51185	0	0	0	0	0.75764	0	-0.119058	0	0	0
0.07	-144.03	781.185	-18.9984	0.206485	0.006	-0.152333	0	1.6125	0	0	0	0	0.75764	0	-0.119058	0	0	0
0.08	-140.412	784.313	-20.1524	0.210451	0.006	-0.150521	0	1.68563	0	0	0	0	0.75764	0	-0.119058	0	0	0
0.09	-136.189	784.183	-21.3257	0.214292	0.006	-0.148684	0	1.72997	0	0	0	0	0.75764	0	-0.119058	0	0	0
0.1	-131.443	780.853	-22.4348	0.218012	0.006	-0.146836	0	1.74333	0	0	0	0	0.75764	0	-0.119058	0	0	0
0.11	-126.267	774.557	-23.3873	0.221621	0.006	-0.144993	0	1.72271	0	0	0	0	0.75764	0	-0.119058	0	0	0
0.12	-120.76	765.676	-24.0912	0.225121	0.006	-0.143171	0	1.66502	0	0	0	0	0.75764	0	-0.119058	0	0	0
0.13	-115.02	754.717	-24.4725	0.228512	0.006	-0.141388	0	1.56815	0	0	0	0	0.75764	0	-0.119058	0	0	0
0.14	-109.132	742.276	-24.4901	0.231786	0.006	-0.13966	0	1.43231	0	0	0	0	0.75764	0	-0.119058	0	0	0
0.15	-103.176	728.992	-24.1414	0.234925	0.006	-0.138006	0	1.26039	0	0	0	0	0.75764	0	-0.119058	0	0	0
0.16	-97.2204	715.489	-23.4605	0.237906	0.006	-0.136444	0	1.05763	0	0	0	0	0.75764	0	-0.119058	0	0	0
0.17	-91.3283	702.327	-22.508	0.240706	0.006	-0.134987	0	0.830651	0	0	0	0	0.75764	0	-0.119058	0	0	0
0.18	-85.5544	689.973	-21.3585	0.243299	0.006	-0.133648	0	0.586676	0	0	0	0	0.75764	0	-0.119058	0	0	0
0.19	-79.9432	678.799	-20.088	0.245666	0.006	-0.132439	0	0.332734	0	0	0	0	0.75764	0	-0.119058	0	0	0
0.2	-74.5256	669.076	-18.7619	0.24779	0.006	-0.131367	0	0.075068	0	0	0	0	0.75764	0	-0.119058	0	0	0
0.21	-69.3173	660.986	-17.4281	0.24966	0.006	-0.130438	0	-0.18107	0	0	0	0	0.75764	0	-0.119058	0	0	0
0.22	-64.3196	654.63	-16.1155	0.251271	0.006	-0.129654	0	-0.431395	0	0	0	0	0.75764	0	-0.119058	0	0	0
0.23	-59.5211	650.036	-14.839	0.252624	0.006	-0.129015	0	-0.672602	0	0	0	0	0.75764	0	-0.119058	0	0	0
0.24	-54.9018	647.163	-13.6056	0.253732	0.006	-0.128516	0	-0.902264	0	0	0	0	0.75764	0	-0.119058	0	0	0
0.25	-50.4356	645.921	-12.4195	0.254612	0.006	-0.128149	0	-1.11877	0	0	0	0	0.75764	0	-0.119058	0	0	0
0.26	-46.0919	646.181	-11.2845	0.255289	0.006	-0.127902	0	-1.32124	0	0	0	0	0.75764	0	-0.119058	0	0	0
0.27	-41.8367	647.795	-10.2077	0.255797	0.006	-0.127759	0	-1.50931	0	0	0	0	0.75764	0	-0.119058	0	0	0
0.28	-37.6348	650.605	-9.20027	0.256168	0.006	-0.127703	0	-1.68302	0	0	0	0	0.75764	0	-0.119058	0	0	0
0.29	-33.4519	654.46	-8.27918	0.256441	0.006	-0.127715	0	-1.84261	0	0	0	0	0.75764	0	-0.119058	0	0	0
0.3	-29.2583	659.225	-7.46779	0.256656	0.006	-0.127776	0	-1.98847	0	0	0	0	0.75764	0	-0.119058	0	0	0
0.31	-25.0328	664.786	-6.79546	0.256852	0.006	-0.127868	0	-2.12116	0	0	0	0	0.75764	0	-0.119058	0	0	0
0.32	-20.7631	671.049	-6.29594	0.257073	0.006	-0.127974	0	-2.24141	0	0	0	0	0.75764	0	-0.119058	0	0	0
0.33	-16.4439	677.931	-6.00431	0.257364	0.006	-0.128079	0	-2.35005	0	0	0	0	0.75764	0	-0.119058	0	0	0
0.34	-12.0755	685.352	-5.9532	0.257764	0.006	-0.128171	0	-2.44786	0	0	0	0	0.75764	0	-0.119058	0	0	0
0.35	-7.65975	693.227	-6.16832	0.258312	0.006	-0.128238	0	-2.53545	0	0	0	0	0.75764	0	-0.119058	0	0	0
0.36	-3.19426	701.478	-6.66299	0.259039	0.006	-0.128277	0	-2.61325	0	0	0	0	0.75764	0	-0.119058	0	0	0
0.37	1.33242	710.039	-7.43344	0.259967	0.006	-0.128283	0	-2.68165	0	0	0	0	0.75764	0	-0.119058	0	0	0
0.38	5.94091	718.864	-8.45668	0.26111	0.006	-0.128259	0	-2.74123	0	0	0	0	0.75764	0	-0.119058	0	0	0
0.39	10.6599	727.907	-9.69061	0.262475	0.006	-0.128209	0	-2.79296	0	0	0	0	0.75764	0	-0.119058	0	0	0
0.4	15.5254	737.117	-11.0776	0.26406	0.006	-0.128139	0	-2.83817	0	0	0	0	0.75764	0	-0.119058	0	0	0
0.41	20.5779	746.423	-12.5497	0.26586	0.006	-0.128057	0	-2.8783	0	0	0	0	0.75764	0	-0.119058	0	0	0
0.42	25.8578	755.724	-14.035	0.267863	0.006	-0.127971	0	-2.91462	0	0	0	0	0.75764	0	-0.119058	0	0	0
0.43	31.4011	764.889	-15.4626	0.270056	0.006	-0.127888	0	-2.94772	0	0	0	0	0.75764	0	-0.119058	0	0	0
0.44	37.2359	773.756	-16.7671	0.272425	0.006	-0.127816	0	-2.97723	0	0	0	0	0.75764	0	-0.119058	0	0	0
0.45	43.3778	782.138	-17.8908	0.274951	0.006	-0.127761	0	-3.00175	0	0	0	0	0.75764	0	-0.119058	0	0	0
0.46	49.8238	789.83	-18.7842	0.277616	0.006	-0.127728	0	-3.01911	0	0	0	0	0.75764	0	-0.119058	0	0	0
0.47	56.5478	796.606	-19.4065	0.280402	0.006	-0.127722	0	-3.02689	0	0	0	0	0.75764	0	-0.119058	0	0	0
0.48	63.4983	802.219	-19.7239	0.283288	0.006	-0.127749	0	-3.02263	0	0	0	0	0.75764	0	-0.119058	0	0	0
0.49	70.5986	806.392	-19.7093	0.286258	0.006	-0.12781	0	-3.00404	0	0	0	0	0.75764	0	-0.119058	0	0	0
0.5	77.7485	808.81	-19.3426	0.289291	0.006	-0.12791	0	-2.96928	0	0	0	0	0.75764	0	-0.119058	0	0	0
0.51	84.8292	809.12	-18.6118	0.292371	0.006	-0.128049	0	-2.91723	0	0	0	0	0.75764	0	-0.119058	0	0	0
0.52	91.707	806.921	-17.5137	0.29548	0.006	-0.128226	0	-2.84752	0	0	0	0	0.75764	0	-0.119058	0	0	0
0.53	98.2337	801.774	-16.0535	0.298604	0.006	-0.12844	0	-2.76038	0	1.24025	29.215	-9.86027	0.775167	0.006	-0.129196	0	0.160209	0
0.54	104.246	793.205	-14.2454	0.301731	0.006	-0.128688	0	-2.65664	0	-0.845645	51.8985	-12.3727	0.807767	0.006	-0.147339	0	0.306314	0
0.55	109.565	780.735	-12.1136	0.304851	0.006	-0.128965	0	-2.53758	0	-3.88757	80.2072	-15.1886	0.824264	0.006	-0.155766	0	0.386779	0
0.56	113.998	763.912	-9.69519	0.307963	0.006	-0.129265	0	-2.40476	0	-8.06388	114.405	-18.224	0.834649	0.006	-0.160527	0	0.441049	0
0.57	117.345	742.349	-7.04308	0.311067	0.006	-0.129585	0	-2.25976	0	-13.5435	154.428	-21.3439	0.842137	0.006	-0.163543	0	0.479377	0
0.58	119.403	715.77	-4.22867	0.314171	0.006	-0.129918	0	-2.10397	0	-20.4634	199.787	-24.3621	0.848093	0.006	-0.16562	0	0.50332	0
0.59	119.986	684.04	-1.34107	0.31729	0.006	-0.130257	0	-1.9388	0	-28.8462	249.594	-27.0407	0.853189	0.006	-0.16717	0	0.511711	0
0.6	118.936	647.213	1.51598	0.320443	0.006	-0.130595	0	-1.76606	0	-38.5051	302.665	-29.1171	0.857775	0.006	-0.168431	0	0.502872	0
0.61	116.146	605.568	4.2274	0.323657	0.006	-0.130925	0	-1.5881	0	-49.0583	357.619	-30.357	0.862025	0.006	-0.169542	0	0.474352	0
0.62	111.581	559.636	6.67228	0.326964	0.006	-0.131236	0	-1.40763	0	-60.0278	412.907	-30.589	0.86602	0.006	-0.170585	0	0.421785	0
0.63	105.297	510.198	8.73357	0.330399	0.006	-0.131518	0	-1.22775	0	-70.904	466.87	-29.7381	0.869793	0.006	-0.171598	0	0.339202	0
0.64	97.4529	458.268	10.3111	0.334006	0.006	-0.13176	0	-1.05203	0	-81.1796	517.946	-27.8519	0.873355	0.006	-0.172596	0	0.221264	0
0.65	88.3104	405.039	11.3379	0.33783	0.006	-0.13195	0	-0.884503	0	-90.4256	564.963	-25.0887	0.876718	0.006	-0.173581	0	0.066755	0
0.66	78.2228	351.798	11.7919	0.341929	0.006	-0.132078	0	-0.729555	0	-98.3416	607.323	-21.6772	0.879896	0.006	-0.174547	0	-0.1185	0
0.67	67.6117	299.823	11.6997	0.346372	0.006	-0.132133	0	-0.590948	0	-104.751	644.954	-17.8895	0.882903	0.006	-0.175489	0	-0.32426	0
0.68	56.9214	250.281	11.1319	0.351257	0.006	-0.132102	0	-0.4711	0	-109.558	678.066	-14.0294	0.885748	0.006	-0.176395	0	-0.540829	0
0.69	46.5622	204.152	10.1919	0.356733	0.006	-0.131966	0	-0.370874	0	-112.717	706.891	-10.3896	0.888433	0.006	-0.177255	0	-0.759524	0
0.7	36.871	162.18	9.00009	0.363043	0.006	-0.131695	0	-0.289754	0	-114.243	731.549	-7.18428	0.890964	0.006	-0.178062	0	-0.970737	0
0.71	28.0922	124.863	7.67653	0.370607	0.006	-0.131235	0	-0.226558	0	-114.22	752.038	-4.51738	0.893356	0.006	-0.178822	0	-1.16462	0
0.72	20.3817	92.4508	6.32617	0.380214	0.006	-0.13048	0	-0.180176	0	-112.793	768.287	-2.40153	0.895629	0.006	-0.179543	0	-1.33324	0
0.73	13.8179	64.9785	5.03277	0.393476	0.006	-0.129208	0	-0.150658	0	-110.148	780.255	-0.789471	0.89781	0.006	-0.180242	0	-1.47101	0
0.74	8.41477	42.2949	3.85572	0.414229	0.006	-0.126876	0	-0.141651	0	-106.495	788.001	0.398104	0.899926	0.006	-0.180932	0	-1.57418	0
0.75	4.12988	24.1024	2.82952	0.454232	0.006	-0.121791	0	-0.169128	0	-102.041	791.711	1.2485	0.901999	0.006	-0.181626	0	-1.64052	0
0.76	0	0	0	0.486005	0	-0.120965	0	0	0	-96.9748	791.678	1.84063	0.904046	0.006	-0.182336	0	-1.66889	0
0.77	0	0	0	0.509164	0	-0.122148	0	0	0	-91.4624	788.255	2.23782	0.90608	0.006	-0.183068	0	-1.65871	0
0.78	0	0	0	0.532322	0	-0.12333	0	0	0	-85.6523	781.832	2.48586	0.90811	0.006	-0.183827	0	-1.60979	0
0.79	0	0	0	0.555481	0	-0.124513	0	0	0	-79.6761	772.832	2.6147	0.910143	0.006	-0.184616	0	-1.52259	0
0.8	0	0	0	0.578639	0	-0.125696	0	0	0	-73.6515	761.719	2.64059	0.912191	0.006	-0.185438	0	-1.39861	0
0.81	0	0	0	0.601798	0	-0.126879	0	0	0	-67.684	749.004	2.56827	0.914263	0.006	-0.18629	0	-1.24052	0
0.82	0	0	0	0.624956	0	-0.128061	0	0	0	-61.8654	735.235	2.39506	0.916372	0.006	-0.187172	0	-1.05212	0
